<svg width="24" height="24" viewBox="0 0 24 24" fill="none" xmlns="http://www.w3.org/2000/svg">
<path d="M12 21.5C10.6872 21.5 9.45292 21.2503 8.29725 20.751C7.14142 20.2517 6.13592 19.5744 5.28075 18.7193C4.42558 17.8641 3.74833 16.8586 3.249 15.7027C2.74967 14.5471 2.5 13.3128 2.5 12C2.5 10.2475 2.94292 8.62633 3.82875 7.1365C4.71475 5.64683 5.92758 4.48658 7.46725 3.65575C7.49042 3.89558 7.52058 4.13792 7.55775 4.38275C7.59492 4.62758 7.65575 4.909 7.74025 5.227C6.57242 5.96667 5.65708 6.93267 4.99425 8.125C4.33142 9.31733 4 10.609 4 12C4 14.2333 4.775 16.125 6.325 17.675C7.875 19.225 9.76667 20 12 20C14.2333 20 16.125 19.225 17.675 17.675C19.225 16.125 20 14.2333 20 12C20 10.609 19.667 9.31317 19.001 8.1125C18.335 6.91183 17.4097 5.94167 16.225 5.202C16.3097 4.8905 16.3722 4.61392 16.4125 4.37225C16.4528 4.13058 16.4897 3.89175 16.523 3.65575C18.0628 4.48658 19.2773 5.64433 20.1663 7.129C21.0554 8.6135 21.5 10.2372 21.5 12C21.5 13.3128 21.2503 14.5471 20.751 15.7027C20.2517 16.8586 19.5744 17.8641 18.7193 18.7193C17.8641 19.5744 16.8586 20.2517 15.7027 20.751C14.5471 21.2503 13.3128 21.5 12 21.5ZM12 17.5C10.4743 17.5 9.17625 16.9648 8.10575 15.8943C7.03525 14.8238 6.5 13.5257 6.5 12C6.5 11.168 6.67408 10.3831 7.02225 9.64525C7.37025 8.90742 7.86542 8.28083 8.50775 7.7655C8.57825 7.9705 8.65225 8.1955 8.72975 8.4405C8.80742 8.68533 8.90708 8.98208 9.02875 9.33075C8.69425 9.70125 8.43917 10.1134 8.2635 10.5673C8.08783 11.0211 8 11.4987 8 12C8 13.1 8.39167 14.0417 9.175 14.825C9.95833 15.6083 10.9 16 12 16C13.1 16 14.0417 15.6083 14.825 14.825C15.6083 14.0417 16 13.1 16 12C16 11.4923 15.9106 11.0148 15.7318 10.5673C15.5529 10.1199 15.2962 9.70775 14.9615 9.33075C15.0563 9.05258 15.1275 8.84042 15.175 8.69425C15.2225 8.54808 15.3199 8.23525 15.4673 7.75575C16.1159 8.27125 16.6169 8.8995 16.9703 9.6405C17.3234 10.3815 17.5 11.168 17.5 12C17.5 13.5257 16.9648 14.8238 15.8943 15.8943C14.8238 16.9648 13.5257 17.5 12 17.5ZM11.7578 8.25C11.5859 8.25 11.4353 8.20033 11.3058 8.101C11.1763 8.00167 11.0846 7.87117 11.0308 7.7095L10.0213 4.44025C9.91742 4.03258 9.84625 3.68067 9.80775 3.3845C9.76925 3.0885 9.75 2.79367 9.75 2.5C9.75 1.8705 9.96767 1.33817 10.403 0.903C10.8382 0.467667 11.3705 0.25 12 0.25C12.6295 0.25 13.1618 0.467667 13.597 0.903C14.0323 1.33817 14.25 1.8705 14.25 2.5C14.25 2.79367 14.2308 3.0885 14.1923 3.3845C14.1538 3.68067 14.0826 4.03258 13.9788 4.44025L12.9693 7.7095C12.9154 7.87117 12.8237 8.00167 12.6942 8.101C12.5647 8.20033 12.4141 8.25 12.2423 8.25H11.7578ZM12 13.75C11.5142 13.75 11.101 13.5798 10.7605 13.2395C10.4202 12.899 10.25 12.4858 10.25 12C10.25 11.5142 10.4202 11.101 10.7605 10.7605C11.101 10.4202 11.5142 10.25 12 10.25C12.4858 10.25 12.899 10.4202 13.2395 10.7605C13.5798 11.101 13.75 11.5142 13.75 12C13.75 12.4858 13.5798 12.899 13.2395 13.2395C12.899 13.5798 12.4858 13.75 12 13.75Z" fill="white"/>
</svg>
