<svg width="120" height="26" viewBox="0 0 120 26" fill="none" xmlns="http://www.w3.org/2000/svg">
<path d="M118.951 12.1072C118.856 12.2567 118.754 12.3629 118.644 12.4258C118.542 12.4887 118.408 12.5202 118.243 12.5202C118.07 12.5202 117.897 12.4848 117.724 12.414C117.551 12.3353 117.362 12.2528 117.158 12.1662C116.961 12.0797 116.737 12.0011 116.485 11.9303C116.233 11.8516 115.946 11.8123 115.624 11.8123C115.16 11.8123 114.802 11.9027 114.55 12.0836C114.306 12.2567 114.184 12.5005 114.184 12.8151C114.184 13.0432 114.263 13.232 114.42 13.3815C114.585 13.5309 114.802 13.6646 115.069 13.7826C115.337 13.8927 115.639 13.9989 115.978 14.1012C116.316 14.2034 116.662 14.3175 117.016 14.4433C117.37 14.5692 117.716 14.7186 118.054 14.8917C118.392 15.0568 118.695 15.2653 118.963 15.517C119.23 15.7608 119.442 16.0597 119.6 16.4137C119.765 16.7676 119.848 17.1923 119.848 17.6879C119.848 18.2935 119.737 18.852 119.517 19.3632C119.297 19.8745 118.967 20.315 118.526 20.6847C118.094 21.0544 117.555 21.3414 116.91 21.5459C116.273 21.7505 115.537 21.8527 114.703 21.8527C114.287 21.8527 113.87 21.8134 113.453 21.7347C113.036 21.6561 112.631 21.5499 112.238 21.4162C111.852 21.2825 111.494 21.1251 111.164 20.9442C110.834 20.7555 110.55 20.5549 110.314 20.3425L111.164 18.9975C111.258 18.8402 111.376 18.7183 111.518 18.6317C111.667 18.5374 111.856 18.4902 112.084 18.4902C112.297 18.4902 112.485 18.5374 112.651 18.6317C112.824 18.7261 113.008 18.8284 113.205 18.9385C113.402 19.0486 113.63 19.1509 113.889 19.2453C114.157 19.3397 114.491 19.3868 114.892 19.3868C115.175 19.3868 115.415 19.3593 115.612 19.3043C115.809 19.2413 115.966 19.1587 116.084 19.0565C116.202 18.9542 116.288 18.8402 116.343 18.7143C116.398 18.5885 116.426 18.4587 116.426 18.325C116.426 18.0812 116.343 17.8806 116.178 17.7233C116.013 17.566 115.797 17.4322 115.529 17.3221C115.262 17.2041 114.955 17.098 114.609 17.0036C114.271 16.9013 113.925 16.7873 113.571 16.6614C113.217 16.5356 112.867 16.3861 112.521 16.2131C112.183 16.0322 111.88 15.808 111.612 15.5406C111.345 15.2653 111.129 14.931 110.963 14.5377C110.798 14.1444 110.716 13.6686 110.716 13.1101C110.716 12.591 110.814 12.0994 111.011 11.6353C111.215 11.1634 111.518 10.7504 111.919 10.3965C112.32 10.0425 112.824 9.7633 113.429 9.55879C114.035 9.34642 114.743 9.24023 115.553 9.24023C115.993 9.24023 116.418 9.27956 116.827 9.35822C117.244 9.43687 117.633 9.54699 117.995 9.68857C118.357 9.83015 118.687 9.99926 118.986 10.1959C119.285 10.3847 119.549 10.5931 119.777 10.8212L118.951 12.1072Z" fill="black"/>
<path d="M108.69 9.42773V21.6627H106.425C105.969 21.6627 105.67 21.4582 105.528 21.0491L105.316 20.3412C105.08 20.5693 104.836 20.7778 104.584 20.9666C104.333 21.1475 104.061 21.3048 103.77 21.4385C103.487 21.5643 103.176 21.6627 102.838 21.7334C102.508 21.8121 102.146 21.8514 101.753 21.8514C101.084 21.8514 100.49 21.7374 99.9711 21.5093C99.4598 21.2733 99.0272 20.9469 98.6733 20.53C98.3193 20.1131 98.0519 19.6215 97.871 19.0552C97.6901 18.4889 97.5996 17.8675 97.5996 17.1911V9.42773H101.257V17.1911C101.257 17.7967 101.395 18.2647 101.67 18.5951C101.945 18.9254 102.35 19.0906 102.885 19.0906C103.286 19.0906 103.66 19.008 104.006 18.8428C104.36 18.6698 104.702 18.4378 105.033 18.1467V9.42773H108.69Z" fill="black"/>
<path d="M95.2473 4V21.6622H91.5898V4H95.2473Z" fill="black"/>
<path d="M83.0761 12.9105C84.1144 12.9105 84.8616 12.6627 85.3178 12.1672C85.774 11.6716 86.0021 10.9795 86.0021 10.0906C86.0021 9.69736 85.9431 9.33948 85.8251 9.01699C85.7071 8.6945 85.5262 8.4192 85.2824 8.1911C85.0464 7.95513 84.7436 7.77422 84.3739 7.64837C84.0121 7.52252 83.5795 7.4596 83.0761 7.4596H80.9996V12.9105H83.0761ZM83.0761 4.47461C84.2874 4.47461 85.3256 4.62012 86.1909 4.91115C87.0639 5.19431 87.7797 5.58759 88.3382 6.09099C88.9045 6.59439 89.3214 7.18824 89.5888 7.87254C89.8562 8.55685 89.9899 9.29622 89.9899 10.0906C89.9899 10.948 89.8523 11.7345 89.577 12.4503C89.3017 13.1661 88.8809 13.7796 88.3146 14.2909C87.7482 14.8021 87.0285 15.2033 86.1555 15.4943C85.2903 15.7775 84.2638 15.919 83.0761 15.919H80.9996V21.6649H77.0117V4.47461H83.0761Z" fill="black"/>
<path d="M61.3255 10.5009C61.7659 10.1234 62.2418 9.82054 62.7531 9.59243C63.2722 9.35647 63.8896 9.23848 64.6054 9.23848C65.274 9.23848 65.8639 9.35647 66.3752 9.59243C66.8943 9.82054 67.3308 10.143 67.6848 10.5599C68.0387 10.9689 68.3062 11.4605 68.4871 12.0347C68.668 12.601 68.7584 13.2185 68.7584 13.887V21.6622H65.101V13.887C65.101 13.2893 64.9633 12.8252 64.688 12.4948C64.4127 12.1566 64.0076 11.9875 63.4728 11.9875C63.0716 11.9875 62.6941 12.074 62.3401 12.2471C61.994 12.4122 61.6558 12.6404 61.3255 12.9314V21.6622H57.668V4H61.3255V10.5009Z" fill="black"/>
<path d="M52.989 21.8481C52.4069 21.8481 51.8917 21.7655 51.4434 21.6003C51.0029 21.4272 50.6293 21.1873 50.3225 20.8806C50.0236 20.566 49.7955 20.1884 49.6382 19.7479C49.4809 19.3075 49.4023 18.8159 49.4023 18.2731V11.9492H48.364C48.1752 11.9492 48.014 11.8902 47.8803 11.7722C47.7465 11.6464 47.6797 11.4655 47.6797 11.2295V9.80191L49.6264 9.42436L50.3461 6.43937C50.4405 6.06182 50.7079 5.87305 51.1484 5.87305H53.0597V9.44796H56.0919V11.9492H53.0597V18.0254C53.0597 18.3085 53.1266 18.5445 53.2603 18.7333C53.4019 18.9142 53.6025 19.0046 53.862 19.0046C53.9958 19.0046 54.1059 18.9928 54.1924 18.9693C54.2868 18.9378 54.3654 18.9063 54.4284 18.8749C54.4992 18.8355 54.5621 18.8041 54.6171 18.7805C54.6801 18.749 54.7509 18.7333 54.8295 18.7333C54.9396 18.7333 55.0262 18.7608 55.0891 18.8159C55.1599 18.8631 55.2307 18.9417 55.3014 19.0518L56.4105 20.7862C55.9386 21.1402 55.4076 21.4076 54.8177 21.5885C54.2278 21.7615 53.6182 21.8481 52.989 21.8481Z" fill="black"/>
<path d="M42.8959 16.6814C42.1644 16.7129 41.5627 16.7758 41.0908 16.8702C40.6188 16.9646 40.2452 17.0826 39.9699 17.2242C39.6946 17.3657 39.5019 17.527 39.3918 17.7079C39.2895 17.8888 39.2384 18.0854 39.2384 18.2978C39.2384 18.7147 39.3525 19.0096 39.5806 19.1827C39.8087 19.3479 40.143 19.4304 40.5834 19.4304C41.0554 19.4304 41.4683 19.3479 41.8223 19.1827C42.1762 19.0175 42.5341 18.7501 42.8959 18.3804V16.6814ZM36.3124 11.1244C37.0518 10.4715 37.8698 9.98781 38.7665 9.67319C39.671 9.3507 40.6385 9.18945 41.6689 9.18945C42.4082 9.18945 43.0729 9.31137 43.6628 9.5552C44.2606 9.79117 44.764 10.1255 45.173 10.5581C45.5899 10.9828 45.9084 11.4901 46.1287 12.0801C46.3489 12.67 46.459 13.315 46.459 14.015V21.6603H44.7837C44.4376 21.6603 44.1741 21.6132 43.9932 21.5188C43.8201 21.4244 43.6746 21.2277 43.5566 20.9288L43.2971 20.2563C42.9903 20.5159 42.6953 20.744 42.4122 20.9406C42.129 21.1373 41.8341 21.3064 41.5273 21.448C41.2284 21.5817 40.9059 21.68 40.5598 21.7429C40.2216 21.8137 39.8441 21.8491 39.4272 21.8491C38.8687 21.8491 38.3614 21.7783 37.9052 21.6367C37.449 21.4873 37.0596 21.271 36.7372 20.9878C36.4225 20.7047 36.1787 20.3547 36.0057 19.9378C35.8326 19.513 35.7461 19.0254 35.7461 18.4748C35.7461 18.0343 35.8562 17.5899 36.0764 17.1416C36.2967 16.6854 36.6782 16.2724 37.2209 15.9027C37.7636 15.5252 38.4951 15.2106 39.4154 14.9589C40.3357 14.7072 41.4958 14.5656 42.8959 14.5341V14.015C42.8959 13.2992 42.7465 12.784 42.4476 12.4694C42.1565 12.1469 41.7397 11.9857 41.1969 11.9857C40.7643 11.9857 40.4104 12.0329 40.1351 12.1273C39.8598 12.2216 39.612 12.3278 39.3918 12.4458C39.1794 12.5638 38.971 12.67 38.7665 12.7644C38.562 12.8588 38.3181 12.9059 38.035 12.9059C37.7833 12.9059 37.5709 12.843 37.3979 12.7172C37.2248 12.5913 37.0832 12.4419 36.9731 12.2688L36.3124 11.1244Z" fill="black"/>
<path d="M28.4179 12.9105C29.4561 12.9105 30.2034 12.6627 30.6596 12.1672C31.1158 11.6716 31.3439 10.9795 31.3439 10.0906C31.3439 9.69736 31.2849 9.33948 31.1669 9.01699C31.0489 8.6945 30.868 8.4192 30.6242 8.1911C30.3882 7.95513 30.0854 7.77422 29.7157 7.64837C29.3539 7.52252 28.9213 7.4596 28.4179 7.4596H26.3414V12.9105H28.4179ZM28.4179 4.47461C29.6292 4.47461 30.6674 4.62012 31.5327 4.91115C32.4057 5.19431 33.1215 5.58759 33.68 6.09099C34.2463 6.59439 34.6632 7.18824 34.9306 7.87254C35.198 8.55685 35.3317 9.29622 35.3317 10.0906C35.3317 10.948 35.1941 11.7345 34.9188 12.4503C34.6435 13.1661 34.2227 13.7796 33.6564 14.2909C33.09 14.8021 32.3703 15.2033 31.4973 15.4943C30.632 15.7775 29.6056 15.919 28.4179 15.919H26.3414V21.6649H22.3535V4.47461H28.4179Z" fill="black"/>
<path d="M13.0898 13.0137H19.461V15.9633H13.0898V13.0137Z" fill="black"/>
<path d="M4.01145 7.54219V11.5536H9.41511V14.5032H4.01145V18.5973H11.0669V21.6649H0V4.47461H11.0669V7.54219H4.01145Z" fill="black"/>
</svg>
