<svg width="124" height="26" viewBox="0 0 124 26" fill="none" xmlns="http://www.w3.org/2000/svg">
<path d="M110.709 7.39824V4.30469H123.387V7.39824H118.823V21.5474H115.324V7.39824H110.709Z" fill="black"/>
<path d="M105.01 21.5474V14.3968H98.595V21.5474H95.0957V4.30469H98.595V11.3539H105.01V4.30469H108.51V21.5474H105.01Z" fill="black"/>
<path d="M86.7708 15.3599V12.3171H91.7914V21.2681C89.3741 21.6569 87.4131 21.8513 85.9086 21.8513C83.2208 21.8513 81.3697 21.1329 80.3554 19.696C79.3581 18.2591 78.8594 15.9769 78.8594 12.8496C78.8594 9.72223 79.3834 7.46546 80.4315 6.07927C81.4796 4.69309 83.263 4 85.7818 4C87.354 4 89.0529 4.1775 90.8786 4.5325L91.7914 4.71L91.69 7.42319C89.6615 7.20343 87.9963 7.09355 86.6947 7.09355C85.4099 7.09355 84.5055 7.24569 83.9815 7.54998C83.4574 7.85426 83.0686 8.42057 82.8151 9.2489C82.5784 10.0603 82.4601 11.4634 82.4601 13.4582C82.4601 15.436 82.7052 16.8222 83.1954 17.6167C83.6857 18.4112 84.6999 18.8085 86.2383 18.8085L88.3429 18.7071V15.3599H86.7708Z" fill="black"/>
<path d="M72.3398 21.5474V4.30469H75.8391V21.5474H72.3398Z" fill="black"/>
<path d="M70.1921 21.5474H60.3789V4.30469H63.8782V18.4539H70.1921V21.5474Z" fill="black"/>
<path d="M45.4844 7.39824V4.30469H58.1629V7.39824H53.5986V21.5474H50.0993V7.39824H45.4844Z" fill="black"/>
<path d="M34.2384 17.4899C34.7455 18.369 35.6837 18.8085 37.053 18.8085C38.4223 18.8085 39.352 18.369 39.8423 17.4899C40.3494 16.594 40.603 15.1064 40.603 13.0271C40.603 10.9309 40.3494 9.40949 39.8423 8.46283C39.3351 7.51617 38.4054 7.04284 37.053 7.04284C35.7006 7.04284 34.7709 7.51617 34.2637 8.46283C33.7566 9.40949 33.503 10.9309 33.503 13.0271C33.503 15.1064 33.7482 16.594 34.2384 17.4899ZM42.5808 19.7213C41.5158 21.1413 39.6732 21.8513 37.053 21.8513C34.4328 21.8513 32.5817 21.1413 31.4998 19.7213C30.4348 18.2844 29.9023 16.0446 29.9023 13.0017C29.9023 9.95889 30.4348 7.70212 31.4998 6.23141C32.5817 4.7438 34.4328 4 37.053 4C39.6732 4 41.5158 4.7438 42.5808 6.23141C43.6627 7.70212 44.2037 9.95889 44.2037 13.0017C44.2037 16.0446 43.6627 18.2844 42.5808 19.7213Z" fill="black"/>
<path d="M22.0697 16.5268H19.2297V21.5474H15.7305V4.30469H22.0697C26.1606 4.30469 28.2061 6.29944 28.2061 10.2889C28.2061 12.3006 27.6821 13.8474 26.634 14.9293C25.6028 15.9943 24.0814 16.5268 22.0697 16.5268ZM19.2297 13.5346H22.0444C23.7855 13.5346 24.6561 12.4527 24.6561 10.2889C24.6561 9.22394 24.4448 8.46323 24.0222 8.00681C23.5996 7.53348 22.9403 7.29681 22.0444 7.29681H19.2297V13.5346Z" fill="black"/>
<path d="M7.23782 7.04284C5.39521 7.04284 4.47391 7.65141 4.47391 8.86854C4.47391 9.40949 4.70212 9.82365 5.15855 10.111C5.61497 10.3984 6.67996 10.8126 8.35353 11.3535C10.044 11.8945 11.2273 12.5115 11.9035 13.2046C12.5797 13.8808 12.9178 14.9289 12.9178 16.3489C12.9178 18.1576 12.3684 19.5269 11.2696 20.4567C10.1708 21.3864 8.73388 21.8513 6.95889 21.8513C5.64033 21.8513 4.02593 21.6485 2.11571 21.2428L1.20286 21.0653L1.55785 18.3521C3.82308 18.6563 5.5558 18.8085 6.75604 18.8085C8.54793 18.8085 9.44388 18.0647 9.44388 16.5771C9.44388 16.0361 9.23257 15.6135 8.80995 15.3092C8.40424 15.0049 7.58436 14.6753 6.35032 14.3203C4.38938 13.7624 3.0032 13.1032 2.19178 12.3424C1.39726 11.5648 1 10.4914 1 9.12211C1 7.39784 1.52404 6.11308 2.57213 5.26785C3.62022 4.42262 5.05712 4 6.88282 4C8.13377 4 9.7228 4.16905 11.6499 4.50714L12.5628 4.68464L12.2839 7.44855C9.9003 7.17808 8.21829 7.04284 7.23782 7.04284Z" fill="black"/>
</svg>
