<svg width="24" height="24" viewBox="0 0 24 24" fill="none" xmlns="http://www.w3.org/2000/svg">
<path d="M5.38702 21.1151C4.69318 21.1151 4.10268 20.8721 3.61552 20.3861C3.12835 19.8999 2.88477 19.3096 2.88477 18.6151C2.88477 18.0549 3.04977 17.5616 3.37977 17.1353C3.70993 16.7091 4.12827 16.4133 4.63477 16.2478V7.76706C4.12827 7.60172 3.70993 7.30339 3.37977 6.87206C3.04977 6.44056 2.88477 5.94472 2.88477 5.38456C2.88477 4.69006 3.12777 4.09972 3.61377 3.61355C4.09993 3.12755 4.69027 2.88456 5.38477 2.88456C5.94493 2.88456 6.44077 3.04955 6.87227 3.37955C7.3036 3.70972 7.60193 4.12806 7.76727 4.63456H11.7808L10.223 3.08631C10.068 2.93697 9.99052 2.7628 9.99052 2.5638C9.99052 2.3648 10.068 2.18772 10.223 2.03255C10.3782 1.87739 10.5564 1.7998 10.7578 1.7998C10.9589 1.7998 11.1371 1.87739 11.2923 2.03255L14.0115 4.75181C14.1923 4.93247 14.2828 5.14339 14.2828 5.38456C14.2828 5.62556 14.1923 5.83639 14.0115 6.01706L11.277 8.75181C11.1282 8.90047 10.9541 8.97639 10.7548 8.97955C10.5554 8.98289 10.3782 8.90697 10.223 8.75181C10.068 8.59664 9.99052 8.41839 9.99052 8.21705C9.99052 8.01589 10.068 7.83772 10.223 7.68255L11.7808 6.13456H7.76727C7.64293 6.52939 7.43843 6.86906 7.15377 7.15356C6.86927 7.43822 6.5296 7.64272 6.13477 7.76706V16.2326C6.6411 16.3979 7.05935 16.6962 7.38952 17.1276C7.71952 17.5591 7.88452 18.0549 7.88452 18.6151C7.88452 19.3096 7.64168 19.8999 7.15602 20.3861C6.67035 20.8721 6.08068 21.1151 5.38702 21.1151ZM18.613 2.88456C19.3068 2.88456 19.8973 3.12739 20.3845 3.61306C20.8717 4.09872 21.1153 4.68847 21.1153 5.3823C21.1153 6.07597 20.8724 6.66639 20.3868 7.15356C19.9011 7.64072 19.3113 7.88431 18.6175 7.88431C17.9238 7.88431 17.3334 7.64147 16.8463 7.1558C16.3591 6.67014 16.1155 6.08047 16.1155 5.3868C16.1155 4.69297 16.3583 4.10247 16.844 3.6153C17.3297 3.12814 17.9193 2.88456 18.613 2.88456ZM5.38477 19.6151C5.6681 19.6151 5.9056 19.5192 6.09727 19.3276C6.28893 19.1359 6.38477 18.8984 6.38477 18.6151C6.38477 18.3317 6.28893 18.0942 6.09727 17.9026C5.9056 17.7109 5.6681 17.6151 5.38477 17.6151C5.10143 17.6151 4.86393 17.7109 4.67227 17.9026C4.4806 18.0942 4.38477 18.3317 4.38477 18.6151C4.38477 18.8984 4.4806 19.1359 4.67227 19.3276C4.86393 19.5192 5.10143 19.6151 5.38477 19.6151ZM5.38477 6.38456C5.6681 6.38456 5.9056 6.28872 6.09727 6.09705C6.28893 5.90539 6.38477 5.66789 6.38477 5.38456C6.38477 5.10122 6.28893 4.86372 6.09727 4.67206C5.9056 4.48039 5.6681 4.38456 5.38477 4.38456C5.10143 4.38456 4.86393 4.48039 4.67227 4.67206C4.4806 4.86372 4.38477 5.10122 4.38477 5.38456C4.38477 5.66789 4.4806 5.90539 4.67227 6.09705C4.86393 6.28872 5.10143 6.38456 5.38477 6.38456ZM18.6153 6.38456C18.8986 6.38456 19.1361 6.28872 19.3278 6.09705C19.5194 5.90539 19.6153 5.66789 19.6153 5.38456C19.6153 5.10122 19.5194 4.86372 19.3278 4.67206C19.1361 4.48039 18.8986 4.38456 18.6153 4.38456C18.3319 4.38456 18.0944 4.48039 17.9028 4.67206C17.7111 4.86372 17.6153 5.10122 17.6153 5.38456C17.6153 5.66789 17.7111 5.90539 17.9028 6.09705C18.0944 6.28872 18.3319 6.38456 18.6153 6.38456Z" fill="white"/>
</svg>
