<svg width="227" height="26" viewBox="0 0 227 26" fill="none" xmlns="http://www.w3.org/2000/svg">
<path d="M211.24 19.9162H207.811V7.11962H211.214V7.83623C212.392 7.15374 213.398 6.8125 214.234 6.8125C215.616 6.8125 216.683 7.21346 217.434 8.01538C219.003 7.21346 220.437 6.8125 221.733 6.8125C223.422 6.8125 224.591 7.3073 225.24 8.29691C225.905 9.26945 226.238 10.8306 226.238 12.9805V19.9162H222.808V13.0828C222.808 11.9909 222.689 11.1889 222.45 10.6771C222.211 10.1481 221.733 9.88369 221.017 9.88369C220.471 9.88369 219.805 10.0031 219.02 10.242L218.636 10.37C218.705 11.6496 218.739 12.6222 218.739 13.2876V19.9162H215.309V13.3388C215.309 12.0762 215.198 11.1889 214.977 10.6771C214.755 10.1481 214.269 9.88369 213.518 9.88369C212.852 9.88369 212.196 10.0031 211.547 10.242L211.24 10.3444V19.9162Z" fill="black"/>
<path d="M197.578 14.9767C197.595 15.7616 197.8 16.3332 198.192 16.6915C198.602 17.0327 199.182 17.2033 199.933 17.2033C201.519 17.2033 202.936 17.1522 204.181 17.0498L204.898 16.973L204.949 19.5067C202.987 19.9845 201.212 20.2233 199.626 20.2233C197.698 20.2233 196.298 19.7115 195.428 18.6878C194.558 17.664 194.123 16.0005 194.123 13.6971C194.123 9.10736 196.008 6.8125 199.779 6.8125C203.499 6.8125 205.358 8.74052 205.358 12.5966L205.103 14.9767H197.578ZM201.98 12.3662C201.98 11.3425 201.818 10.6344 201.494 10.242C201.17 9.8325 200.598 9.62775 199.779 9.62775C198.977 9.62775 198.406 9.84103 198.064 10.2676C197.74 10.6771 197.57 11.3766 197.553 12.3662H201.98Z" fill="black"/>
<path d="M192.531 10.0376H189.383V15.2842C189.383 15.7961 189.391 16.1629 189.408 16.3847C189.443 16.5894 189.536 16.7686 189.69 16.9222C189.861 17.0757 190.117 17.1525 190.458 17.1525L192.403 17.1013L192.556 19.8398C191.413 20.0957 190.543 20.2237 189.946 20.2237C188.41 20.2237 187.361 19.8824 186.798 19.2C186.235 18.5004 185.953 17.2207 185.953 15.361V10.0376H184.443V7.11996H185.953V3.5625H189.383V7.11996H192.531V10.0376Z" fill="black"/>
<path d="M182.557 10.3186C180.441 10.0456 178.956 9.90908 178.103 9.90908C177.267 9.90908 176.721 9.98586 176.465 10.1394C176.226 10.293 176.107 10.5404 176.107 10.8816C176.107 11.2058 176.269 11.4361 176.593 11.5726C176.935 11.6921 177.788 11.8798 179.153 12.1357C180.535 12.3746 181.516 12.7755 182.096 13.3386C182.676 13.9016 182.966 14.8144 182.966 16.077C182.966 18.8411 181.251 20.2231 177.822 20.2231C176.696 20.2231 175.331 20.0696 173.727 19.7625L172.908 19.6089L173.01 16.7425C175.126 17.0155 176.593 17.152 177.412 17.152C178.248 17.152 178.811 17.0752 179.101 16.9216C179.409 16.751 179.562 16.5036 179.562 16.1794C179.562 15.8552 179.4 15.6164 179.076 15.4628C178.769 15.3092 177.95 15.1216 176.619 14.8998C175.305 14.6779 174.324 14.3026 173.676 13.7737C173.027 13.2447 172.703 12.3063 172.703 10.9584C172.703 9.59343 173.164 8.5697 174.085 7.88721C175.007 7.18766 176.192 6.83789 177.643 6.83789C178.649 6.83789 180.023 6.99998 181.763 7.32416L182.608 7.47772L182.557 10.3186Z" fill="black"/>
<path d="M159.57 7.11914H162.949L165.278 16.9981H165.866L168.195 7.11914H171.574L167.069 25.2903H163.716L165.124 19.9158H162.718L159.57 7.11914Z" fill="black"/>
<path d="M152.659 5.27626C150.799 5.27626 149.87 5.8905 149.87 7.11898C149.87 7.66496 150.1 8.08299 150.561 8.37304C151.021 8.6631 152.096 9.08112 153.785 9.62711C155.492 10.1731 156.686 10.7959 157.368 11.4954C158.051 12.1779 158.392 13.2358 158.392 14.669C158.392 16.4946 157.838 17.8767 156.729 18.8151C155.619 19.7535 154.169 20.2227 152.378 20.2227C151.047 20.2227 149.417 20.018 147.489 19.6085L146.568 19.4293L146.926 16.6908C149.213 16.998 150.962 17.1515 152.173 17.1515C153.982 17.1515 154.886 16.4008 154.886 14.8993C154.886 14.3533 154.673 13.9268 154.246 13.6197C153.837 13.3125 153.009 12.9798 151.763 12.6215C149.784 12.0585 148.385 11.393 147.566 10.6252C146.764 9.84039 146.363 8.75694 146.363 7.37491C146.363 5.63457 146.892 4.33785 147.95 3.48474C149.008 2.63163 150.458 2.20508 152.301 2.20508C153.564 2.20508 155.167 2.3757 157.112 2.71694L158.034 2.8961L157.752 5.68575C155.346 5.41276 153.649 5.27626 152.659 5.27626Z" fill="black"/>
<path d="M130.662 19.9162H127.232V7.11962H130.636V7.83623C131.797 7.15374 132.863 6.8125 133.835 6.8125C135.542 6.8125 136.719 7.31583 137.367 8.3225C138.016 9.32917 138.34 10.8818 138.34 12.9805V19.9162H134.91V13.0828C134.91 11.9909 134.782 11.1889 134.526 10.6771C134.271 10.1481 133.759 9.88369 132.991 9.88369C132.291 9.88369 131.617 10.0031 130.969 10.242L130.662 10.3444V19.9162Z" fill="black"/>
<path d="M125.153 21.5026C125.153 22.9699 124.59 24.0534 123.464 24.7529C122.338 25.4525 120.811 25.8023 118.883 25.8023C116.972 25.8023 115.496 25.5463 114.456 25.0345C113.432 24.5226 112.92 23.5927 112.92 22.2448C112.92 21.1699 113.534 20.1547 114.763 19.1992C114.131 18.7727 113.816 18.1243 113.816 17.2541C113.816 16.9129 114.072 16.3498 114.583 15.565L114.814 15.2067C113.654 14.3706 113.073 13.1422 113.073 11.5212C113.073 9.88328 113.56 8.69746 114.532 7.96379C115.522 7.23012 116.827 6.86328 118.448 6.86328C119.182 6.86328 119.907 6.94859 120.623 7.11921L121.033 7.19599L125.153 7.06803V9.8065L123.234 9.65294C123.609 10.2331 123.797 10.8132 123.797 11.3933C123.797 13.0995 123.362 14.2768 122.492 14.9251C121.622 15.5735 120.257 15.8977 118.397 15.8977C118.004 15.8977 117.655 15.8636 117.348 15.7953C117.177 16.2389 117.092 16.6058 117.092 16.8958C117.092 17.1688 117.237 17.3565 117.527 17.4589C117.817 17.5612 118.499 17.621 119.574 17.638C121.724 17.6551 123.191 17.9451 123.976 18.5082C124.761 19.0542 125.153 20.0523 125.153 21.5026ZM116.298 21.8865C116.298 22.6202 117.194 22.987 118.986 22.987C120.794 22.987 121.698 22.5605 121.698 21.7073C121.698 21.2467 121.545 20.9481 121.238 20.8116C120.931 20.6922 120.282 20.6239 119.293 20.6068L116.989 20.4277C116.529 20.8884 116.298 21.3746 116.298 21.8865ZM116.503 11.4189C116.503 12.6644 117.151 13.2872 118.448 13.2872C119.762 13.2872 120.419 12.6644 120.419 11.4189C120.419 10.1563 119.762 9.52498 118.448 9.52498C117.151 9.52498 116.503 10.1563 116.503 11.4189Z" fill="black"/>
<path d="M106.961 19.9153V7.11864H110.39V19.9153H106.961ZM106.961 5.48068V2H110.39V5.48068H106.961Z" fill="black"/>
<path d="M104.078 10.3186C101.962 10.0456 100.478 9.90908 99.6248 9.90908C98.7887 9.90908 98.2427 9.98586 97.9868 10.1394C97.7479 10.293 97.6285 10.5404 97.6285 10.8816C97.6285 11.2058 97.7906 11.4361 98.1148 11.5726C98.456 11.6921 99.3091 11.8798 100.674 12.1357C102.056 12.3746 103.037 12.7755 103.617 13.3386C104.197 13.9016 104.487 14.8144 104.487 16.077C104.487 18.8411 102.773 20.2231 99.3433 20.2231C98.2172 20.2231 96.8522 20.0696 95.2483 19.7625L94.4294 19.6089L94.5317 16.7425C96.6474 17.0155 98.1148 17.152 98.9338 17.152C99.7698 17.152 100.333 17.0752 100.623 16.9216C100.93 16.751 101.084 16.5036 101.084 16.1794C101.084 15.8552 100.922 15.6164 100.597 15.4628C100.29 15.3092 99.4712 15.1216 98.1404 14.8998C96.8266 14.6779 95.8455 14.3026 95.1971 13.7737C94.5488 13.2447 94.2246 12.3063 94.2246 10.9584C94.2246 9.59343 94.6853 8.5697 95.6066 7.88721C96.528 7.18766 97.7138 6.83789 99.1641 6.83789C100.171 6.83789 101.544 6.99998 103.285 7.32416L104.129 7.47772L104.078 10.3186Z" fill="black"/>
<path d="M84.6582 14.9767C84.6753 15.7616 84.88 16.3332 85.2725 16.6915C85.6819 17.0327 86.2621 17.2033 87.0128 17.2033C88.5996 17.2033 90.0157 17.1522 91.2613 17.0498L91.9779 16.973L92.0291 19.5067C90.0669 19.9845 88.2925 20.2233 86.7057 20.2233C84.7776 20.2233 83.3786 19.7115 82.5084 18.6878C81.6382 17.664 81.2031 16.0005 81.2031 13.6971C81.2031 9.10736 83.0885 6.8125 86.8592 6.8125C90.5788 6.8125 92.4386 8.74052 92.4386 12.5966L92.1826 14.9767H84.6582ZM89.0602 12.3662C89.0602 11.3425 88.8982 10.6344 88.574 10.242C88.2498 9.8325 87.6782 9.62775 86.8592 9.62775C86.0573 9.62775 85.4857 9.84103 85.1445 10.2676C84.8203 10.6771 84.6497 11.3766 84.6326 12.3662H89.0602Z" fill="black"/>
<path d="M71.6909 19.9171H65.8301V2.51367H71.6909C73.1924 2.51367 74.4294 2.67576 75.4019 2.99994C76.3745 3.30706 77.1252 3.82746 77.6541 4.56113C78.2001 5.27774 78.5755 6.13085 78.7802 7.12045C78.985 8.09299 79.0874 9.36412 79.0874 10.9338C79.0874 12.5036 78.9935 13.8088 78.8058 14.8496C78.6182 15.8733 78.2599 16.7947 77.7309 17.6137C77.2191 18.4156 76.4683 19.0042 75.4787 19.3796C74.4891 19.7379 73.2265 19.9171 71.6909 19.9171ZM75.4019 13.0069C75.4361 12.4609 75.4531 11.7102 75.4531 10.7547C75.4531 9.78214 75.419 9.00582 75.3508 8.4257C75.2825 7.84559 75.1204 7.31667 74.8645 6.83892C74.6086 6.36118 74.2247 6.037 73.7128 5.86638C73.218 5.6787 72.544 5.58486 71.6909 5.58486H69.3619V16.8459H71.6909C72.9706 16.8459 73.9005 16.5217 74.4806 15.8733C74.9754 15.3444 75.2825 14.3889 75.4019 13.0069Z" fill="black"/>
<path d="M56.6292 11.1122V16.4356C56.6633 16.845 56.7316 17.1351 56.8339 17.3057C56.9363 17.4593 57.1496 17.5702 57.4738 17.6384L57.3714 20.2233C56.5012 20.2233 55.8017 20.1636 55.2728 20.0442C54.7609 19.9248 54.2405 19.6859 53.7116 19.3276C52.4831 19.9248 51.229 20.2233 49.9494 20.2233C47.3047 20.2233 45.9824 18.8243 45.9824 16.0261C45.9824 14.6611 46.3493 13.6971 47.0829 13.134C47.8166 12.5539 48.9427 12.2127 50.4612 12.1103L53.1997 11.9056V11.1122C53.1997 10.5832 53.0803 10.2249 52.8414 10.0372C52.6025 9.8325 52.2186 9.73013 51.6897 9.73013L46.8782 9.93487L46.7758 7.5547C48.6015 7.0599 50.3333 6.8125 51.9712 6.8125C53.6263 6.8125 54.8121 7.15374 55.5287 7.83623C56.2624 8.51871 56.6292 9.61069 56.6292 11.1122ZM50.8707 14.4905C49.9152 14.5758 49.4375 15.0876 49.4375 16.0261C49.4375 16.9645 49.8555 17.4337 50.6916 17.4337C51.3399 17.4337 52.048 17.3313 52.8158 17.1266L53.1997 17.0242V14.2857L50.8707 14.4905Z" fill="black"/>
<path d="M40.2305 19.9153V7.11864H43.66V19.9153H40.2305ZM40.2305 5.48068V2H43.66V5.48068H40.2305Z" fill="black"/>
<path d="M26.2812 7.11914H29.8643L31.9118 16.9981H32.6284L34.7782 7.11914H38.2589L35.1877 19.9157H29.3524L26.2812 7.11914Z" fill="black"/>
<path d="M24.3636 11.1122V16.4356C24.3977 16.845 24.466 17.1351 24.5683 17.3057C24.6707 17.4593 24.884 17.5702 25.2082 17.6384L25.1058 20.2233C24.2356 20.2233 23.5361 20.1636 23.0071 20.0442C22.4953 19.9248 21.9749 19.6859 21.446 19.3276C20.2175 19.9248 18.9634 20.2233 17.6837 20.2233C15.0391 20.2233 13.7168 18.8243 13.7168 16.0261C13.7168 14.6611 14.0836 13.6971 14.8173 13.134C15.551 12.5539 16.6771 12.2127 18.1956 12.1103L20.9341 11.9056V11.1122C20.9341 10.5832 20.8147 10.2249 20.5758 10.0372C20.3369 9.8325 19.953 9.73013 19.4241 9.73013L14.6126 9.93487L14.5102 7.5547C16.3358 7.0599 18.0676 6.8125 19.7056 6.8125C21.3606 6.8125 22.5465 7.15374 23.2631 7.83623C23.9967 8.51871 24.3636 9.61069 24.3636 11.1122ZM18.6051 14.4905C17.6496 14.5758 17.1719 15.0876 17.1719 16.0261C17.1719 16.9645 17.5899 17.4337 18.4259 17.4337C19.0743 17.4337 19.7824 17.3313 20.5502 17.1266L20.9341 17.0242V14.2857L18.6051 14.4905Z" fill="black"/>
<path d="M6.29593 5.27626C4.43616 5.27626 3.50627 5.8905 3.50627 7.11898C3.50627 7.66496 3.73661 8.08299 4.19729 8.37304C4.65797 8.6631 5.73288 9.08112 7.42203 9.62711C9.12825 10.1731 10.3226 10.7959 11.0051 11.4954C11.6876 12.1779 12.0288 13.2358 12.0288 14.669C12.0288 16.4946 11.4743 17.8767 10.3653 18.8151C9.25621 19.7535 7.80593 20.2227 6.01441 20.2227C4.68356 20.2227 3.05412 20.018 1.1261 19.6085L0.204746 19.4293L0.563051 16.6908C2.84938 16.998 4.59825 17.1515 5.80966 17.1515C7.61825 17.1515 8.52254 16.4008 8.52254 14.8993C8.52254 14.3533 8.30926 13.9268 7.88271 13.6197C7.47322 13.3125 6.64571 12.9798 5.40017 12.6215C3.42096 12.0585 2.02186 11.393 1.20288 10.6252C0.40096 9.84039 0 8.75694 0 7.37491C0 5.63457 0.528927 4.33785 1.58678 3.48474C2.64463 2.63163 4.09492 2.20508 5.93763 2.20508C7.20023 2.20508 8.80407 2.3757 10.7492 2.71694L11.6705 2.8961L11.389 5.68575C8.98322 5.41276 7.28554 5.27626 6.29593 5.27626Z" fill="black"/>
</svg>
