<svg width="24" height="24" viewBox="0 0 24 24" fill="none" xmlns="http://www.w3.org/2000/svg">
<path d="M7.875 17.5C6.784 17.5 5.942 17.0859 5.349 16.2578C4.75617 15.4294 4.47317 14.4493 4.5 13.3173V13.2308L3.973 12.4213C3.71283 12.0161 3.40233 11.3263 3.0415 10.352C2.6805 9.3775 2.5 8.26017 2.5 7C2.5 5.42433 2.8785 4.11375 3.6355 3.06825C4.39267 2.02275 5.3475 1.5 6.5 1.5C7.718 1.5 8.68917 2.06183 9.4135 3.1855C10.1378 4.30933 10.5 5.58083 10.5 7C10.5 7.92183 10.3651 8.80225 10.0953 9.64125C9.82525 10.4804 9.5775 11.166 9.352 11.698L9.677 12.2348C9.84233 12.5129 10.0208 12.8789 10.2125 13.3328C10.4042 13.7866 10.5 14.234 10.5 14.675C10.5 15.484 10.2522 16.1571 9.75675 16.6943C9.26125 17.2314 8.634 17.5 7.875 17.5ZM5.43275 11.8885L7.8845 11.348C8.114 10.8147 8.35733 10.1567 8.6145 9.374C8.8715 8.59133 9 7.8 9 7C9 5.9615 8.766 5.03525 8.298 4.22125C7.83017 3.40708 7.23083 3 6.5 3C5.76917 3 5.16983 3.40708 4.702 4.22125C4.234 5.03525 4 5.9615 4 7C4 8.00517 4.15067 8.94392 4.452 9.81625C4.75317 10.6888 5.08008 11.3795 5.43275 11.8885ZM7.875 16C8.198 16 8.46625 15.8802 8.67975 15.6405C8.89325 15.4007 9 15.0788 9 14.675C9 14.3917 8.9285 14.084 8.7855 13.752C8.64267 13.4198 8.4725 13.0987 8.275 12.7885L6 13.3078C6 14.0769 6.15383 14.7179 6.4615 15.2307C6.76917 15.7436 7.24033 16 7.875 16ZM16.125 22.5C15.366 22.5 14.7387 22.2314 14.2432 21.6943C13.7477 21.1571 13.5 20.484 13.5 19.675C13.5 19.234 13.5958 18.7866 13.7875 18.3328C13.9792 17.8789 14.1577 17.5129 14.323 17.2348L14.648 16.698C14.4288 16.1723 14.1828 15.4884 13.9098 14.6462C13.6366 13.8039 13.5 12.9218 13.5 12C13.5 10.5808 13.8622 9.30933 14.5865 8.1855C15.3108 7.06183 16.282 6.5 17.5 6.5C18.6525 6.5 19.6073 7.02275 20.3645 8.06825C21.1215 9.11375 21.5 10.4243 21.5 12C21.5 13.2602 21.3212 14.3717 20.9635 15.3345C20.6058 16.2973 20.2937 16.9877 20.027 17.4057L19.5 18.2307V18.327C19.5167 19.4398 19.2295 20.4135 18.6385 21.248C18.0475 22.0827 17.2097 22.5 16.125 22.5ZM18.5288 16.9462C18.9519 16.2834 19.3029 15.5552 19.5818 14.7615C19.8606 13.968 20 13.0475 20 12C20 10.9615 19.766 10.0352 19.298 9.22125C18.8302 8.40708 18.2308 8 17.5 8C16.7692 8 16.1698 8.40708 15.702 9.22125C15.234 10.0352 15 10.9615 15 12C15 12.8 15.1302 13.5872 15.3905 14.3615C15.6507 15.1358 15.8923 15.798 16.1155 16.348L18.5288 16.9462ZM16.125 21C16.7468 21 17.2148 20.7468 17.5288 20.2405C17.8429 19.734 18 19.1122 18 18.375L15.7348 17.7788C15.5821 18.0506 15.4215 18.3542 15.253 18.6895C15.0843 19.0247 15 19.3532 15 19.675C15 20.0147 15.1073 20.3204 15.322 20.5923C15.5368 20.8641 15.8045 21 16.125 21Z" fill="white"/>
</svg>
