<svg width="24" height="24" viewBox="0 0 24 24" fill="none" xmlns="http://www.w3.org/2000/svg">
<path d="M13.945 3.34756C13.7214 3.0122 13.4287 2.7439 13.0668 2.54268C12.7049 2.34146 12.3088 2.24085 11.8785 2.24085C11.3376 2.24085 10.8489 2.38804 10.4125 2.68242C9.97611 2.9768 9.64612 3.36619 9.42252 3.85061C9.33596 3.991 9.23708 4.11925 9.12588 4.23538C9.01469 4.3515 8.88275 4.40956 8.73007 4.40956C8.56418 4.40956 8.44516 4.32199 8.37303 4.14685C8.3009 3.97172 8.30812 3.79099 8.39467 3.60468C8.68319 2.87432 9.13941 2.2893 9.76333 1.84959C10.3872 1.40989 11.0887 1.19004 11.8677 1.19004C12.4303 1.19004 12.9514 1.30928 13.4311 1.54776C13.9108 1.78625 14.3165 2.10671 14.6483 2.50915V1.52541C14.6483 1.37822 14.6976 1.25385 14.7962 1.15231C14.8949 1.05077 15.0193 1 15.1695 1C15.3125 1 15.4327 1.05077 15.5301 1.15231C15.6274 1.25385 15.6761 1.37822 15.6761 1.52541V3.87297C15.6761 4.02761 15.627 4.1557 15.5287 4.25724C15.4304 4.35878 15.3101 4.40956 15.1676 4.40956H12.8955C12.7459 4.40956 12.6219 4.3586 12.5236 4.25668C12.4254 4.15476 12.3762 4.02621 12.3762 3.87101C12.3762 3.72327 12.4254 3.59909 12.5236 3.49848C12.6219 3.39787 12.7459 3.34756 12.8955 3.34756H13.945Z" fill="white"/>
<path d="M5.68406 12.7003C6.02472 12.7003 6.32259 12.6307 6.57768 12.4914C6.83276 12.352 6.9603 12.1431 6.9603 11.8645C6.9603 11.5979 6.83423 11.3919 6.58209 11.2466C6.32995 11.1013 6.03356 11.0286 5.69292 11.0286C5.35226 11.0286 5.05926 11.1032 4.81391 11.2523C4.56858 11.4014 4.44592 11.6047 4.44592 11.8622C4.44592 12.1423 4.56711 12.352 4.80949 12.4914C5.05188 12.6307 5.3434 12.7003 5.68406 12.7003ZM3.06847 9.17618C2.91344 9.17618 2.77993 9.1156 2.66796 8.99446C2.55599 8.87331 2.5 8.72887 2.5 8.56112C2.5 8.39886 2.55814 8.25749 2.67441 8.13701C2.7907 8.01652 2.92934 7.95628 3.09033 7.95628H4.99252V7.39152C4.99252 7.18761 5.05545 7.01616 5.18132 6.87715C5.30718 6.73813 5.46979 6.66862 5.66913 6.66862C5.86847 6.66862 6.03512 6.73813 6.16906 6.87715C6.303 7.01616 6.36997 7.18761 6.36997 7.39152V7.95628H8.29402C8.44376 7.95628 8.57958 8.01969 8.70148 8.14652C8.82339 8.27334 8.88435 8.41471 8.88435 8.57061C8.88435 8.73268 8.82339 8.87412 8.70148 8.99493C8.57958 9.11576 8.44376 9.17618 8.29402 9.17618H3.06847ZM5.6775 13.9428C4.96794 13.9428 4.35935 13.7623 3.85175 13.4012C3.34414 13.0401 3.09033 12.5321 3.09033 11.8772C3.09033 11.207 3.34639 10.6947 3.85849 10.3403C4.37058 9.98591 4.98586 9.80871 5.70433 9.80871C6.42503 9.80871 7.04411 9.98444 7.56156 10.3359C8.07902 10.6873 8.33774 11.1992 8.33774 11.8715C8.33774 12.5439 8.07711 13.0572 7.55584 13.4114C7.03456 13.7657 6.40845 13.9428 5.6775 13.9428ZM5.01438 17.3314C4.72651 17.3314 4.48327 17.2288 4.28467 17.0236C4.08607 16.8184 3.98677 16.5671 3.98677 16.2696V15.2982C3.98677 15.1007 4.0512 14.9346 4.18007 14.7999C4.30894 14.6653 4.47023 14.5979 4.66394 14.5979C4.85227 14.5979 5.01606 14.6653 5.15532 14.7999C5.29458 14.9346 5.36421 15.1007 5.36421 15.2982V16.0889H11.2675C11.4233 16.0889 11.5642 16.1505 11.6904 16.2736C11.8166 16.3968 11.8797 16.5436 11.8797 16.7142C11.8797 16.8847 11.8166 17.0302 11.6904 17.1507C11.5642 17.2712 11.4233 17.3314 11.2675 17.3314H5.01438ZM10.5762 14.869C10.3812 14.869 10.2181 14.8017 10.0869 14.667C9.9557 14.5323 9.8901 14.3662 9.8901 14.1687V7.39152C9.8901 7.19814 9.96072 7.03308 10.1019 6.89633C10.2432 6.75958 10.4062 6.69121 10.5909 6.69121C10.7686 6.69121 10.9221 6.75958 11.0515 6.89633C11.181 7.03308 11.2457 7.19814 11.2457 7.39152V10.0798H12.164C12.325 10.0798 12.4636 10.1426 12.5799 10.2682C12.6962 10.3938 12.7543 10.5435 12.7543 10.7174C12.7543 10.8852 12.6962 11.0279 12.5799 11.1457C12.4636 11.2634 12.325 11.3223 12.164 11.3223H11.2675V14.1687C11.2675 14.3662 11.2011 14.5323 11.0681 14.667C10.9352 14.8017 10.7712 14.869 10.5762 14.869ZM17.3881 15.5016C17.7466 15.5016 18.1317 15.4074 18.5432 15.2192C18.9548 15.0309 19.3573 14.7673 19.7509 14.4283V12.0904C19.3719 12.1506 19.045 12.2146 18.7703 12.2824C18.4956 12.3502 18.2248 12.4292 17.958 12.5196C17.3166 12.7272 16.8502 12.9768 16.5587 13.2686C16.2672 13.5603 16.1214 13.8882 16.1214 14.2521C16.1214 14.6408 16.2366 14.9462 16.4669 15.1683C16.6972 15.3905 17.0043 15.5016 17.3881 15.5016ZM16.9741 17.0151C16.2016 17.0151 15.5784 16.7855 15.1047 16.3261C14.631 15.8668 14.3941 15.238 14.3941 14.4398C14.3941 13.6868 14.6529 13.0429 15.1703 12.5083C15.6878 11.9737 16.4619 11.5424 17.4927 11.2146C17.7737 11.1207 18.0911 11.0399 18.4448 10.9721C18.7985 10.9044 19.2338 10.8328 19.7509 10.7575C19.7578 10.0334 19.6505 9.49474 19.4289 9.14141C19.2073 8.78808 18.8045 8.61141 18.2204 8.61141C17.9384 8.61141 17.6383 8.66036 17.3202 8.75825C17.002 8.85614 16.6534 9.01804 16.2745 9.24395C16.085 9.34937 15.8941 9.37699 15.702 9.32679C15.5099 9.27658 15.3618 9.1586 15.2578 8.97286C15.1484 8.76202 15.1157 8.55117 15.1594 8.34032C15.2031 8.12948 15.327 7.96381 15.5311 7.84333C16.0121 7.57224 16.504 7.36516 17.0069 7.22209C17.5098 7.07901 18.0017 7.00748 18.4827 7.00748C19.5242 7.00748 20.2874 7.34126 20.7724 8.00883C21.2575 8.67638 21.5 9.63779 21.5 10.8931V16.0437C21.5 16.261 21.4269 16.4433 21.2806 16.5907C21.1344 16.7381 20.9643 16.8118 20.7702 16.8118H20.6404C20.4532 16.8118 20.2909 16.7516 20.1536 16.6311C20.0163 16.5106 19.9331 16.36 19.9039 16.1793L19.882 15.8404C19.4448 16.239 18.9674 16.5344 18.4499 16.7267C17.9325 16.919 17.4405 17.0151 16.9741 17.0151Z" fill="white"/>
<path d="M10.055 20.6524C10.2786 20.9878 10.5713 21.2561 10.9332 21.4573C11.2951 21.6585 11.6912 21.7591 12.1215 21.7591C12.6624 21.7591 13.1511 21.612 13.5875 21.3176C14.0239 21.0232 14.3539 20.6338 14.5775 20.1494C14.664 20.009 14.7629 19.8807 14.8741 19.7646C14.9853 19.6485 15.1172 19.5904 15.2699 19.5904C15.4358 19.5904 15.5548 19.678 15.627 19.8531C15.6991 20.0283 15.6919 20.209 15.6053 20.3953C15.3168 21.1257 14.8606 21.7107 14.2367 22.1504C13.6127 22.5901 12.9113 22.81 12.1323 22.81C11.5697 22.81 11.0485 22.6907 10.5689 22.4522C10.0892 22.2138 9.6835 21.8933 9.3517 21.4909V22.4746C9.3517 22.6218 9.30238 22.7461 9.20375 22.8477C9.1051 22.9492 8.98068 23 8.83048 23C8.68748 23 8.5673 22.9492 8.46992 22.8477C8.37255 22.7461 8.32386 22.6218 8.32386 22.4746V20.127C8.32386 19.9724 8.373 19.8443 8.47127 19.7428C8.56955 19.6412 8.68992 19.5904 8.83237 19.5904H11.1044C11.2541 19.5904 11.3781 19.6414 11.4764 19.7433C11.5746 19.8452 11.6238 19.9738 11.6238 20.129C11.6238 20.2767 11.5746 20.4009 11.4764 20.5015C11.3781 20.6021 11.2541 20.6524 11.1044 20.6524L10.055 20.6524Z" fill="white"/>
</svg>
