<svg width="107" height="26" viewBox="0 0 107 26" fill="none" xmlns="http://www.w3.org/2000/svg">
<path d="M77.7718 8.04834C78.5944 8.75565 79.0483 10.2513 79.0483 11.2571V20.0617H75.6763V12.108C75.6763 11.4191 75.5877 10.8923 75.4139 10.5239C75.0913 9.85347 74.4814 9.51823 73.5808 9.51823C72.4746 9.51823 71.7122 10.0082 71.3009 10.9955C71.0882 11.5149 70.9818 12.178 70.9818 12.9885V20.0654H67.6914V6.64844H70.879V8.91775C71.3009 8.24727 71.659 8.07412 72.0349 7.77941C72.7086 7.2526 73.5631 6.98736 74.5984 6.98736C75.8891 6.98736 76.9492 7.34102 77.7718 8.04834Z" fill="#212121"/>
<path d="M40.0781 22.9278L96.0435 22.9499C96.3662 22.9646 96.6747 22.9536 96.969 22.9131C97.2597 22.8725 97.5256 22.8357 97.8199 22.6404C98.139 22.4305 98.2029 22.2242 98.3553 21.7895C99.0113 19.9475 98.7453 19.4796 98.4581 18.4886L93.6785 6.64844H97.3377L100.242 14.4842L102.954 6.64844H106.454L102.025 19.848C101.192 22.3273 100.532 24.2209 100.047 24.8177C99.5609 25.4145 98.5893 25.7129 97.1356 25.7129C96.8413 25.7129 96.6073 25.7092 96.43 25.7055C96.2527 25.7018 40.4362 25.6871 40.0817 25.665V22.9278H40.0781Z" fill="#212121"/>
<path d="M22.5899 7.2305C23.4693 7.61731 24.1926 8.23253 24.7634 9.06879C25.2776 9.80558 25.5896 10.9992 25.742 11.9754C25.8307 12.5464 25.8661 13.368 25.852 14.44H16.6863C16.736 15.6852 17.1756 16.5582 18.0018 17.0593C18.5053 17.3724 19.108 17.5271 19.8172 17.5271C20.5653 17.5271 21.1752 17.3356 21.6432 16.9561C21.8985 16.7498 22.1254 16.4661 22.3204 16.1014H25.6818C25.5931 16.8382 25.1854 17.5861 24.462 18.345C23.3345 19.5533 21.7567 20.1575 19.725 20.1575C18.0514 20.1575 16.5729 19.6491 15.2929 18.6286C14.0129 17.6082 13.3711 15.9541 13.3711 13.6553C13.3711 11.5039 13.9739 9.51455 15.1298 8.36884C16.2857 7.21945 17.7855 6.64844 19.6293 6.64844C20.7284 6.64844 21.7141 6.84369 22.5899 7.2305ZM17.6437 10.2108C17.1792 10.6824 16.8849 11.4891 16.7679 12.2959H22.4375C22.3772 11.4339 22.0864 10.616 21.5617 10.1703C21.0369 9.72453 20.388 9.49981 19.6115 9.49981C18.7641 9.49981 18.1082 9.73927 17.6437 10.2108Z" fill="#212121"/>
<path d="M0 22.9278L28.667 22.9499C28.9897 22.9646 29.2982 22.9536 29.5924 22.9131C29.8832 22.8725 30.1491 22.8357 30.4434 22.6404C30.7625 22.4305 30.8264 22.2242 30.9788 21.7895C31.6348 19.9475 31.3688 19.4796 31.0816 18.4886L26.3127 6.64844H29.9718L32.858 14.4842L35.5882 6.64844H39.0878L34.6451 19.848C33.8118 22.3273 33.1523 24.2209 32.6666 24.8177C32.1808 25.4145 31.2093 25.7129 29.7556 25.7129C29.4613 25.7129 29.2272 25.7092 29.05 25.7055C28.8691 25.7018 0.35457 25.6871 0 25.6613V22.9278Z" fill="#212121"/>
<path d="M51.1021 8.50788C52.0417 9.74937 52.3537 11.3961 52.3537 13.3559C52.3537 15.3858 51.9034 16.8189 50.9744 18.1561C50.0455 19.4934 48.7513 20.1602 47.0883 20.1602C46.0424 20.1602 45.2056 19.9428 44.5709 19.5118C44.1915 19.2539 43.7696 19.0587 43.3264 18.4214V20.0644H40.082V1H43.3724V8.68839C43.7908 8.08054 44.4113 7.56847 44.9148 7.24797C45.5105 6.84642 46.2693 6.64749 47.1912 6.64749C48.8577 6.64749 50.1625 7.26639 51.1021 8.50788ZM48.3967 16.5241C48.8896 15.8131 49.1378 14.8774 49.1378 13.717C49.1378 12.7886 49.0172 12.0224 48.7726 11.4145C48.3116 10.2614 47.4606 9.68674 46.2232 9.68674C44.968 9.68674 44.1064 10.2504 43.6384 11.3777C43.3937 11.9782 43.2732 12.7518 43.2732 13.7059C43.2732 14.8258 43.5249 15.7542 44.0249 16.4873C44.5248 17.2241 45.2907 17.5925 46.3189 17.5925C47.2124 17.5888 47.9039 17.2351 48.3967 16.5241Z" fill="#212121"/>
<path d="M57.2059 6.64844V14.8673C57.2059 15.6115 57.291 16.1714 57.4577 16.5472C57.7555 17.2103 58.3406 17.5419 59.2164 17.5419C60.3333 17.5419 61.0991 17.0703 61.514 16.1272C61.7267 15.6152 61.8366 14.941 61.8366 14.1011V6.64844H65.1731V20.0617H61.9749V18.216C61.943 18.2565 62.0529 17.8513 61.748 18.2897C61.6133 18.4813 61.4785 18.6655 61.3119 18.8165C60.7977 19.2954 60.3013 19.6233 59.8227 19.8001C59.344 19.977 58.7802 20.0654 58.1349 20.0654C56.277 20.0654 55.0253 19.3691 54.38 17.9766C54.0184 17.2103 53.834 16.3667 53.834 14.871V6.64844H57.2059Z" fill="#212121"/>
<path d="M91.5082 8.04834C92.3308 8.75565 92.7846 10.2513 92.7846 11.2571V20.0617H89.4127V12.108C89.4127 11.4191 89.324 10.8923 89.1503 10.5239C88.8276 9.85347 88.2178 9.51823 87.3172 9.51823C86.2109 9.51823 85.4486 10.0082 85.0373 10.9955C84.8245 11.5149 84.7182 12.178 84.7182 12.9885V20.0654H81.4277V6.64844H84.6153V8.91775C85.0373 8.24727 85.3954 8.07412 85.7712 7.77941C86.4449 7.2526 87.2994 6.98736 88.3348 6.98736C89.6219 6.98736 90.682 7.34102 91.5082 8.04834Z" fill="#212121"/>
<path d="M10.0581 6.97536C10.6964 7.25902 11.2211 7.69004 11.6324 8.2721C11.9799 8.76575 12.1926 9.27414 12.2706 9.79357C12.3487 10.313 12.3877 11.164 12.3877 12.3465V20.1049H8.99442V12.0666C8.99442 11.3556 8.87741 10.7809 8.64694 10.3462C8.34555 9.73095 7.77469 9.42518 6.93436 9.42518C6.06212 9.42518 5.39907 9.73095 4.94877 10.3425C4.49847 10.954 4.27154 11.8234 4.27154 12.9544V20.1086H0.949219V1H4.27154V8.61103C4.75021 7.84477 5.30689 7.3106 5.93802 7.00483C6.56916 6.70274 7.2322 6.5517 7.93071 6.5517C8.71076 6.5517 9.4199 6.69538 10.0581 6.97536Z" fill="#212121"/>
</svg>
